<?xml version="1.0" encoding="UTF-8"?><svg id="a" xmlns="http://www.w3.org/2000/svg" viewBox="0 0 250.459 512.001"><path d="m229.278,503.181H21.189c41.879-15.832,77.939-43.536,104.045-79.021,26.105,35.485,62.166,63.188,104.045,79.021Z" fill="#e09b2d"/><path d="m174.517,58.288c8.557,9.015,14.669,20.346,17.266,32.981-5.501,3.326-10.86,6.888-16.056,10.649-.4-.447-.811-.882-1.211-1.316-.411-.435-.823-.858-1.246-1.269-12.294-12.294-29.29-19.899-48.038-19.899-19.406,0-36.907,8.122-49.284,21.169-.411.435-.823.87-1.211,1.316-5.195-3.761-10.555-7.323-16.056-10.649,2.586-12.635,8.698-23.966,17.266-32.981,9.097-9.591,20.981-16.538,34.345-19.523,4.807-1.093,9.803-1.657,14.939-1.657s10.132.576,14.939,1.657c12.753,2.856,24.166,9.321,33.099,18.242.423.423.835.846,1.246,1.281Z" fill="#71a517"/><path d="m175.727,101.918c-19.311,13.999-36.366,30.936-50.494,50.142-14.128-19.206-31.183-36.143-50.494-50.142.388-.447.799-.882,1.211-1.316,12.377-13.047,29.878-21.169,49.284-21.169,18.747,0,35.743,7.605,48.038,19.899.423.411.835.835,1.246,1.269.4.435.811.87,1.211,1.316Z" fill="#f95428"/><path d="m241.643,34.675l-12.365,38.364c-13.117,4.948-25.647,11.072-37.495,18.23-2.598-12.635-8.71-23.966-17.266-32.981-.411-.435-.823-.858-1.246-1.281-8.933-8.921-20.346-15.386-33.099-18.242l26.246-28.773,16.455,15.397,21.157-16.573,9.403,28.209,28.209-2.351Z" fill="#9ad14b"/><path d="m84.036,9.992l26.258,28.773c-13.364,2.985-25.247,9.932-34.345,19.523-8.569,9.015-14.68,20.346-17.266,32.981-11.848-7.158-24.377-13.282-37.495-18.23l-12.377-38.364,28.209,2.351,9.403-28.209,21.157,16.573,16.455-15.397Z" fill="#9ad14b"/><path d="m191.783,91.27c11.848-7.158,24.377-13.282,37.495-18.23v430.142c-41.879-15.832-77.939-43.536-104.045-79.021,28.021-38.082,44.582-85.144,44.582-136.05s-16.561-97.956-44.582-136.05c14.128-19.206,31.183-36.143,50.494-50.142,5.195-3.761,10.555-7.323,16.056-10.649Z" fill="#f7b239"/><path d="m74.739,101.918c19.311,13.999,36.366,30.936,50.494,50.142,28.021,38.094,44.582,85.144,44.582,136.05s-16.561,97.968-44.582,136.05c-26.105,35.485-62.166,63.188-104.045,79.021V73.039c13.117,4.948,25.647,11.072,37.495,18.23,5.501,3.326,10.861,6.888,16.056,10.649Z" fill="#f7b239"/><path d="m69.379,98.163c-3.501-2.391-7.064-4.698-10.696-6.894-11.848-7.158-24.377-13.282-37.495-18.23v430.142c17.132-6.476,33.289-14.943,48.191-25.113V98.163Z" fill="#e09b2d"/><path d="m142.78,296.926c-4.87,0-8.815-3.947-8.815-8.815,0-39.106-11.557-76.759-33.423-108.892-2.74-4.026-1.696-9.509,2.327-12.247,4.027-2.74,9.51-1.696,12.247,2.328,23.865,35.069,36.478,76.153,36.478,118.811.001,4.868-3.945,8.815-8.814,8.815Z" fill="#fff"/><path d="m202.808,401.476c-4.87,0-8.815-3.947-8.815-8.815v-215.094c0-4.868,3.946-8.815,8.815-8.815s8.815,3.947,8.815,8.815v215.094c0,4.868-3.947,8.815-8.815,8.815Z" fill="#fff"/><path d="m202.808,142.892c-4.87,0-8.815-3.947-8.815-8.815v-16.455c0-4.868,3.946-8.815,8.815-8.815s8.815,3.947,8.815,8.815v16.455c0,4.87-3.947,8.815-8.815,8.815Z" fill="#fff"/><circle cx="89.081" cy="149.923" r="8.815" fill="#fff"/><circle cx="137.323" cy="102.146" r="8.815" fill="#fff"/><circle cx="205.68" cy="57.623" r="8.815" fill="#fff"/><path d="m248.548,29.193c-1.834-2.308-4.689-3.548-7.636-3.304l-21.305,1.775-7.212-21.636c-.906-2.719-3.078-4.827-5.823-5.654-2.748-.826-5.721-.264-7.976,1.502l-15.212,11.916-10.942-10.238c-1.721-1.61-4.022-2.466-6.371-2.372-2.355.093-4.577,1.126-6.165,2.867l-22.936,25.141c-3.852-.588-7.772-.896-11.741-.896s-7.903.297-11.753.882l-22.925-25.127c-1.589-1.742-3.809-2.774-6.165-2.867-2.351-.095-4.65.76-6.371,2.372l-10.942,10.238L51.864,1.876c-2.256-1.767-5.227-2.328-7.976-1.502-2.745.826-4.917,2.935-5.823,5.654l-7.212,21.636-21.305-1.775c-2.948-.244-5.804.994-7.636,3.304s-2.39,5.381-1.487,8.187l11.943,37.048v428.758c0,4.868,3.946,8.815,8.815,8.815h208.092c4.87,0,8.815-3.947,8.815-8.815V74.426l11.944-37.048c.905-2.806.347-5.877-1.486-8.185Zm-81.632-6.666l9.937,9.297c3.174,2.97,8.038,3.183,11.459.503l11.312-8.861,5.449,16.346c1.287,3.858,5.064,6.334,9.095,5.997l15.028-1.253-7.024,21.786c-8.61,3.431-16.975,7.353-25.07,11.724-3.587-9.556-9.065-18.342-16.166-25.815-.474-.504-.947-.993-1.432-1.476-6.924-6.917-14.941-12.332-23.65-16.124l11.062-12.124Zm-48.786,134.76c28.043,38.112,42.867,83.351,42.867,130.826s-14.823,92.713-42.867,130.826c-22.885,31.105-53.179,55.457-88.13,71.052V86.235c34.951,15.595,65.245,39.946,88.13,71.052Zm7.1-19.617c-11.003-13.545-23.368-25.771-36.881-36.511,10.42-8.369,23.247-12.915,36.881-12.915,13.562,0,26.426,4.552,36.876,12.919-13.511,10.738-25.875,22.963-36.876,36.507Zm0,300.885c18.276,22.499,40.313,41.357,65.117,55.814H60.111c24.804-14.457,46.842-33.315,65.118-55.814Zm10.951-14.574c27.786-40.004,42.445-86.832,42.445-135.869s-14.66-95.865-42.445-135.869c22.387-28.695,51.244-51.269,84.278-66.008v403.756c-33.034-14.74-61.89-37.315-84.278-66.009Zm30.869-360.727c.355.354.697.708,1.073,1.108,6.213,6.539,10.812,14.346,13.497,22.838-1.65,1.059-3.291,2.131-4.914,3.231-14.146-12.808-32.277-19.818-51.476-19.818s-37.327,7.006-51.457,19.831c-1.629-1.104-3.278-2.18-4.934-3.244,2.685-8.492,7.285-16.3,13.504-22.843,11.272-11.884,26.504-18.429,42.887-18.429,15.784-.001,30.633,6.151,41.82,17.326ZM36.292,45.809c4.04.337,7.81-2.14,9.095-5.997l5.449-16.346,11.312,8.861c3.42,2.68,8.288,2.467,11.459-.503l9.937-9.297,11.033,12.095c-9.302,4.049-17.792,9.972-25.021,17.594-7.126,7.499-12.611,16.292-16.199,25.851-8.095-4.372-16.46-8.293-25.071-11.726l-7.023-21.786,15.03,1.253Z" fill="#333"/><circle cx="190.996" cy="157.206" r="8.815" fill="#333"/><circle cx="70.382" cy="177.958" r="8.815" fill="#333"/><circle cx="106.344" cy="244.168" r="8.815" fill="#333"/><circle cx="107.507" cy="332.407" r="8.815" fill="#333"/><circle cx="70.149" cy="398.846" r="8.815" fill="#333"/><circle cx="190.608" cy="418.788" r="8.815" fill="#333"/></svg>