<?xml version="1.0" encoding="UTF-8"?><svg id="a" xmlns="http://www.w3.org/2000/svg" viewBox="0 0 250.459 512.001"><circle cx="205.68" cy="57.623" r="8.815" fill="#fff"/><path d="m248.548,29.193c-1.834-2.308-4.689-3.548-7.636-3.304l-21.305,1.775-7.212-21.636c-.906-2.719-3.078-4.827-5.823-5.654-2.748-.826-5.721-.264-7.976,1.502l-15.212,11.916-10.942-10.238c-1.721-1.61-4.022-2.466-6.371-2.372-2.355.093-4.577,1.126-6.165,2.867l-22.936,25.141c-3.852-.588-7.772-.896-11.741-.896s-7.903.297-11.753.882l-22.925-25.127c-1.589-1.742-3.809-2.774-6.165-2.867-2.351-.095-4.65.76-6.371,2.372l-10.942,10.238L51.864,1.876c-2.256-1.767-5.227-2.328-7.976-1.502-2.745.826-4.917,2.935-5.823,5.654l-7.212,21.636-21.305-1.775c-2.948-.244-5.804.994-7.636,3.304s-2.39,5.381-1.487,8.187l11.943,37.048v428.758c0,4.868,3.946,8.815,8.815,8.815h208.092c4.87,0,8.815-3.947,8.815-8.815V74.426l11.944-37.048c.905-2.806.347-5.877-1.486-8.185Zm-81.632-6.666l9.937,9.297c3.174,2.97,8.038,3.183,11.459.503l11.312-8.861,5.449,16.346c1.287,3.858,5.064,6.334,9.095,5.997l15.028-1.253-7.024,21.786c-8.61,3.431-16.975,7.353-25.07,11.724-3.587-9.556-9.065-18.342-16.166-25.815-.474-.504-.947-.993-1.432-1.476-6.924-6.917-14.941-12.332-23.65-16.124l11.062-12.124Zm-48.786,134.76c28.043,38.112,42.867,83.351,42.867,130.826s-14.823,92.713-42.867,130.826c-22.885,31.105-53.179,55.457-88.13,71.052V86.235c34.951,15.595,65.245,39.946,88.13,71.052Zm7.1-19.617c-11.003-13.545-23.368-25.771-36.881-36.511,10.42-8.369,23.247-12.915,36.881-12.915,13.562,0,26.426,4.552,36.876,12.919-13.511,10.738-25.875,22.963-36.876,36.507Zm0,300.885c18.276,22.499,40.313,41.357,65.117,55.814H60.111c24.804-14.457,46.842-33.315,65.118-55.814Zm10.951-14.574c27.786-40.004,42.445-86.832,42.445-135.869s-14.66-95.865-42.445-135.869c22.387-28.695,51.244-51.269,84.278-66.008v403.756c-33.034-14.74-61.89-37.315-84.278-66.009Zm30.869-360.727c.355.354.697.708,1.073,1.108,6.213,6.539,10.812,14.346,13.497,22.838-1.65,1.059-3.291,2.131-4.914,3.231-14.146-12.808-32.277-19.818-51.476-19.818s-37.327,7.006-51.457,19.831c-1.629-1.104-3.278-2.18-4.934-3.244,2.685-8.492,7.285-16.3,13.504-22.843,11.272-11.884,26.504-18.429,42.887-18.429,15.784-.001,30.633,6.151,41.82,17.326ZM36.292,45.809c4.04.337,7.81-2.14,9.095-5.997l5.449-16.346,11.312,8.861c3.42,2.68,8.288,2.467,11.459-.503l9.937-9.297,11.033,12.095c-9.302,4.049-17.792,9.972-25.021,17.594-7.126,7.499-12.611,16.292-16.199,25.851-8.095-4.372-16.46-8.293-25.071-11.726l-7.023-21.786,15.03,1.253Z" fill="#333"/><circle cx="190.996" cy="157.206" r="8.815" fill="#333"/><circle cx="70.382" cy="177.958" r="8.815" fill="#333"/><circle cx="106.344" cy="244.168" r="8.815" fill="#333"/><circle cx="107.507" cy="332.407" r="8.815" fill="#333"/><circle cx="70.149" cy="398.846" r="8.815" fill="#333"/><circle cx="190.608" cy="418.788" r="8.815" fill="#333"/></svg>