<svg xmlns="http://www.w3.org/2000/svg" xmlns:xlink="http://www.w3.org/1999/xlink" width="28" height="28" viewBox="0 0 28 28">
    <defs>
        <path id="a" d="M24.62 17.172a1.53 1.53 0 0 1-1.004.843c-.124.031-.27.05-.41.073 0-.038.01-.073.01-.11 0-1.668-1.314-3.023-2.932-3.023-1.617 0-2.932 1.355-2.932 3.022 0 .066.015.128.018.193h-6.905c.003-.065.019-.127.019-.193 0-1.667-1.315-3.022-2.933-3.022-1.46 0-2.663 1.107-2.885 2.549-1.386-.803-1.749-2.213-1.178-4.467l.04-.151c.065-.257.16-.49.25-.727 1.418.27 5.502 1.042 7.295 1.357 1.467.257 2.744.385 3.848.385.925 0 1.73-.09 2.424-.27l.245-.06c1.122-.278 1.74-.432 2.57-.432 1.942 0 3.743 1.124 4.481 2.797a1.47 1.47 0 0 1-.021 1.236m-4.336 2.555c-.936 0-1.697-.785-1.697-1.75s.761-1.75 1.697-1.75 1.698.785 1.698 1.75-.762 1.75-1.698 1.75m-12.733 0c-.936 0-1.697-.785-1.697-1.75s.761-1.75 1.697-1.75 1.698.785 1.698 1.75-.762 1.75-1.698 1.75m3.039-11.45l.348-.003c4.502.054 7.691 1.156 10.497 3.736a6.33 6.33 0 0 0-1.276-.143c-.976 0-1.684.175-2.858.467l-.25.062c-1.36.351-3.247.308-5.772-.136-1.65-.288-5.257-.97-6.913-1.284 1.18-1.77 3.29-2.7 6.224-2.7m15.176 7.134a5.724 5.724 0 0 0-.958-1.488c-.015-.026-.02-.056-.04-.081C21.054 8.98 16.946 7 10.59 7l-.617.005v.013c-3.42.149-5.859 1.566-7.07 4.036a.55.55 0 0 0-.069.13 7.81 7.81 0 0 0-.5 1.379l-.04.152c-.803 3.167.044 5.262 2.497 6.242C5.188 20.141 6.27 21 7.551 21c1.1 0 2.047-.633 2.55-1.558h7.634c.502.925 1.45 1.558 2.55 1.558 1.107 0 2.064-.645 2.561-1.583.378-.03.75-.085 1.068-.168a2.77 2.77 0 0 0 1.817-1.523 2.794 2.794 0 0 0 .035-2.316"/>
    </defs>
    <use fill="#451400" fill-rule="evenodd" xlink:href="#a"/>
</svg>
