<svg xmlns="http://www.w3.org/2000/svg" width="34" height="45" viewBox="0 0 34 45">
    <path fill="#D4CBC7" fill-rule="evenodd" d="M22.601 41.84c1.354 0 5.124-1.895 3.727-2.767-.884-.547-1.922-1.279-3.837-2.662-.858-.62-1.235-.452-1.5-.452-.79 0 .493-1.203.07-2.175-.467-1.06-.732-2.682-1.125-3.05-.396-.374-.234-2.334.594-3.115.904-.853 2.202-3.336 2.916-4.285.85-1.134 1.432-3.627 1.098-3.948-.342-.317-1.887-3.344-2.56-3.984-.439-.41-1.153-1.422-1.872-2.246l-.17-.225-.726.39c-.728.394-1.625 1.206-1.625 1.206s-.626.196-2.073-.079c-.779-.146-1.061-.665-1.061-1.252 0-.59-.406-.44-.406-.44s-7.305.334-7.841.625c-.532.295-2.866 3.312-2.866 3.312S2.102 28.17 3.06 29.078c1.144 1.078 7.115 9.954 8.231 11.013 1.112 1.436 9.957 1.748 11.31 1.748M8.504 16.435c-.754.128-1.972-.074-2.545.91l-1.087 4.462s.116 4.48.22 5.368c.104.885 1.328 3.774 2.011 4.425.605.57 1.78 2.457 2.845 3.452.288.266.873.396 1.119.708.442.566.165.176-.628-.932-2.918-4.081-3.55-7.603-3.691-8.204-.312-1.313-.082-4.396 0-5.633.042-.654.524-2.121.98-2.45.217-.156 2.218-.365 2.62-.473.626-.175 1.513-.162 2.086-.273 1.835-.356 5.206.53 5.436.631 2.745 1.199 1.679 1.616 1.719 1.758.045.146-3.82 7.493-3.803 7.838.017.373.159 4.048.523 5.053.106.296 1.327 3.077 1.547 3.58.965 2.21-2.079-.367-2.276-.469-.196-.104-4.214-6.618-4.794-8-.392-.93-.249-2.331-.17-2.629.102-.407-.208-3.553.412-3.984.42-.292 2.3-.47 3.208-.095.825.342 1.268 1.215 1.182 1.422-.066.173-1.37 4.145-1.573 3.813-.064-.11-.07-1.366-.242-1.491-.174-.128-1.132-.317-1.25-.174-.117.15-.35 1.483-.227 1.94.58 2.208 1.932 1.52 2.188 1.108.381-.612 2.218-5.492 2.185-5.806-.079-.718-.642-1.955-1.833-2.335-.714-.225-3.826-.1-4.681.323-1.314.65-1.237 6.29-.986 7.113.25.814 4.388 7.374 4.583 7.88.383.98 2.889 3.317 3.28 3.538.164.093 3.584 1.346 4.027.718.193-.273.097-1.034-.758-1.56-.814-.507-2.763-5.867-2.756-6.29.009-.394-.507-3.38-.166-4 .648-1.186 5.305-7.773 4.795-8.302-.685-.714-2.772-4.037-3.751-2.784-.885 1.131-5.071-.035-6.113-.755-.079-.056-2.547.41-3.636.599M28.892.957c.415.046 2.247.653 2.247.653s1.77 2.443 2.223 2.968c.455.524.251.904.251.904l-.867 2.994s.315.245 0 0c-.321-.241-2.662-.042-3.22.007-.56.046.505-.62.758-.857.253-.238 1.265-.906 1.134-1.289-.12-.381-1.646-3.163-1.646-3.163s-2.66-.025-3.924.118c-1.263.143-3.918 2.636-3.918 2.636l-.966 3.604s.39.663.946 1.093c.555.43 2.172.285 2.776.237.605-.046.354.622-.15 1.05-.508.428-2.323.428-2.323.428l.756.239c.834.715 2.367 4.379 3.27 5.234.904.848-.026 5.146-1.323 6.37-1.3 1.218-1.918 3.852-2.707 4.597-.796.747-1.613.454-.796 1.225.824.768.44 1.7.571 2.38.084.437.215 1.231.614 1.604.39.372 6.378 4.289 8.783 4.468.44.034.445 2.027-2.022 4.477 0 0-.44 1.414-4.552 1.538-4.488.133-8.9-.574-9.916-.574-1.013 0-3.962-1.582-3.962-1.582-.561 0-9.927-12.298-9.927-13.146 0-.854-.663-3.154-.663-4.006 0-.85 1.041-8.639.874-9.581-.132-.742.277-.914 1.181-1.766.901-.85 2.53-2.292 3.147-2.876.278-.261 2.437-.205 5.055-.733l.404-.163-.52-.237s-.842-1-2.203-.952c-1.36.046-1.818.143-1.111-.143.707-.284 1.977-1.189 1.977-1.189l2.969 1.239h2.242l2.812-2.186 6.376-4.888 5.35-.732"/>
</svg>
